<svg xmlns="http://www.w3.org/2000/svg" width="156" height="48" fill="none" viewBox="0 0 156 48"><g fill="#BF0000" clip-path="url(#a)"><path d="M125.486 39.652H31.181l7.518 7.52zM39.921 9.214v1.139c-1.748-1.12-3.317-1.77-5.47-1.77-6.606 0-11.624 6.034-11.624 13.44 0 7.417 5.018 13.44 11.625 13.44 2.152 0 3.721-.649 5.469-1.769v1.139h5.808V9.214zm-5.479 20.094c-3.26 0-5.638-3.21-5.638-7.275 0-4.056 2.387-7.266 5.638-7.266 3.261 0 5.563 3.21 5.563 7.266s-2.293 7.275-5.563 7.275M86.439 9.214v15.059c0 2.823-1.936 5.205-4.755 5.205-2.82 0-4.755-2.382-4.755-5.205V9.214H71.12v15.059c0 6.174 4.22 11.2 10.384 11.2 2.857 0 4.934-1.581 4.934-1.581v.95h5.808V9.214zM140.56 34.842V19.784c0-2.824 1.936-5.205 4.755-5.205s4.755 2.381 4.755 5.204v15.06h5.808v-15.06c0-6.174-4.22-11.2-10.384-11.2-2.857 0-4.934 1.582-4.934 1.582v-.95h-5.808v25.627z"/><path d="M6.08 34.842v-9.93h4.295l7.433 9.93h7.603l-8.984-11.98c2.8-2.015 4.642-5.29 4.642-8.998 0-6.09-4.943-11.04-11.023-11.04H.009v32.018zm0-25.93h3.966c2.725 0 4.962 2.222 4.962 4.96a4.967 4.967 0 0 1-4.962 4.97H6.08zM107.903 28.781c-.526.358-1.184.63-1.945.63-.949 0-2.735-.724-2.735-3.143V15.303h4.971v-6.08h-4.971v-6.39h-5.808v6.39h-3.073v6.08h3.073v11.05c0 5.722 4.305 9.139 8.637 9.139 1.616 0 3.853-.527 5.685-1.61zM60.163 21.233l9.962-12.019h-8.139l-6.963 8.932V.716h-5.986v34.126h5.986V24.32l8.561 10.522h8.138z"/><path d="M121.323 8.565c-6.719 0-11.54 5.92-11.54 13.468 0 7.934 6.052 13.468 12.123 13.468 3.063 0 6.991-1.054 10.281-5.741l-5.132-2.965c-3.965 5.854-10.581 2.88-11.342-2.974h16.727c1.429-9.205-4.511-15.256-11.117-15.256m5.065 10.155h-10.459c1.221-5.995 9.331-6.343 10.459 0"/></g><defs><clipPath id="a"><path fill="#fff" d="M0 0h156v48H0z"/></clipPath></defs></svg>