<svg width="640" height="360" viewBox="0 0 640 360" fill="none" xmlns="http://www.w3.org/2000/svg">
<g clip-path="url(#clip0_255_545)">
<rect width="640" height="360" fill="white"/>
<path d="M658.7 -58.7H-91.3V441.3H658.7V-58.7Z" fill="url(#paint0_linear_255_545)"/>
<path d="M733.7 49.7C729.8 51.5 725.6 53 721.3 53.9L721.6 59.1L743.3 446.3H372.9V308.4C360.6 302.3 352.1 289.2 352.1 273.9C352.1 256.1 363.7 241.1 379.4 236.9C378.4 232.2 377.9 227.2 377.9 222.2C377.9 183.8 408.5 152.6 446.3 152.6C463.5 152.6 479.2 159.1 491.2 169.7C505.3 157.6 524 150.2 544.5 150.2C551 150.2 557.3 150.9 563.3 152.3C567.9 154.5 572.8 156.2 577.8 157.1C581.5 158.7 585 160.6 588.4 162.7L588.5 158.1H588.3C584.7 158.1 581.2 157.8 577.8 157.1C573.2 155.1 568.3 153.5 563.3 152.3C540.2 141.1 524 114.9 524 84.4C524 43.7 552.8 10.7 588.3 10.7C602.3 10.7 615.3 15.8 625.8 24.5C631.5 20 639.7 16.3 649.5 13.9C644.6 3.19997 641.8 -9.10002 641.8 -22.1C641.8 -64.8 671.7 -99.4 708.6 -99.4C745.5 -99.4 775.4 -64.8 775.4 -22.1C775.5 10.5 758.2 38.3 733.7 49.7Z" fill="url(#paint1_linear_255_545)"/>
<path d="M237.3 235C237.3 256.7 222.5 275.5 201.2 283.8L197.2 402.1H-191.6L-200.1 -47.9C-200.7 -51.5 -201 -55.3 -201 -59.2C-201 -93.9 -176.2 -122 -145.7 -122C-115.2 -122 -90.4 -93.9 -90.4 -59.2C-90.4 -48.6 -92.7 -38.6 -96.8 -29.8C-92 -25 -88.3 -18.7 -86.1 -11.4C-78 -17.9 -68.3 -21.6 -57.8 -21.6C-29.3 -21.6 -6.2 6.39999 -6.2 41C-6.2 73.2 -26.3 99.8 -52.1 103.2L-51.9 110.1C-41.8 106.9 -30.5 105 -18.6 105C7.39999 105 30.4 113.6 44.5 126.9C55.2 105.9 78 91.4 104.4 91.4C141.1 91.4 170.8 119.4 170.8 154C170.8 164.3 168.2 174.1 163.4 182.7C167.5 181.9 171.8 181.5 176.2 181.5C209.9 181.5 237.3 205.5 237.3 235Z" fill="url(#paint2_linear_255_545)"/>
<path d="M127.4 309.1C126.3 290.6 118.5 242.6 108.8 227C103.8 218.9 97.3 211.1 88.5 207.6C79.7 204.1 68.2 206.2 63.2 214.3C59.1 221 60.3 229.7 61.6 237.5C58 230.3 53.5 223.4 47.2 218.6C40.9 213.7 32.5 211.2 24.9 213.3C17.3 215.5 11 223.1 11.8 231.1C5.5 220.4 -3.29999 210.6 -14.9 206.3C-26.4 202 -40.8 204.3 -48.6 214C-56.8 224.3 -55.7 239 -54.2 252.2C-60.5 247.3 -70.1 247.6 -76.2 252.7C-82.3 257.9 -84.3 267.4 -80.7 274.6C-89.6 270.5 -99.6 269 -109.3 270.4C-113.3 271 -117.3 272.1 -120.3 274.7C-123.6 277.6 -125.2 281.9 -126.5 286C-132 304.1 -132.6 323.8 -128.1 342.3" fill="#3C9968"/>
<path d="M84.4999 230.1C83.4999 227.5 82.8999 224.9 82.1999 222.2C81.7999 220.7 79.2999 220.9 79.3999 222.6C79.5999 225.7 80.2999 228.6 81.1999 231.5C81.9999 233.9 82.7999 236.7 84.9999 238.1C85.7999 238.6 86.6999 237.9 86.6999 237.1C86.8999 234.7 85.2999 232.4 84.4999 230.1Z" fill="#22665C"/>
<path d="M76.5 267.4C75.8 265.4 75.2 263.4 74.5 261.3C74 259.6 71.3 260.3 71.8 262C72.4 264 73 266.1 73.6 268.1C74.1 269.8 74.3 271.8 75.7 273C76.3 273.5 77.3 273.3 77.5 272.5C78 270.8 77 269.1 76.5 267.4Z" fill="#22665C"/>
<path d="M103.1 278.1L100.5 270.9C99.8 268.8 96.4 269.7 97.1 271.8C97.8 274.1 98.6 276.4 99.3 278.8C99.7 280.1 100.4 282.7 102.3 282.2C104.2 281.6 103.5 279.3 103.1 278.1Z" fill="#22665C"/>
<path d="M56.5 289.7C56 286.8 54.4 283.9 53.4 281.1C52.4 278.2 51.5 275.4 50.7 272.4C50.3 270.8 48 271.5 48.3 273.1C49.1 278.7 50 286.2 53.4 291C54.6 292.5 56.8 291.6 56.5 289.7Z" fill="#22665C"/>
<path d="M468.2 288.4C468.2 274.6 476.1 261 488.1 254.1C500.1 247.2 515.8 247.2 527.8 254.2C527.9 237.1 537.5 220.4 552.2 211.7C558.5 208 566.1 205.6 573.3 207.2C582 209.1 588.7 216.5 592.1 224.7C595.5 232.9 596.2 242 596.9 250.9C597.3 242.1 601.8 233 610 229.7C618.2 226.4 629.3 231.9 629.7 240.6C628.2 223.9 634.8 206.4 648 196C661.2 185.7 680.7 183.6 695.2 192.1C713.9 203.1 719.9 227.3 720.7 249C721.7 277.3 716.6 305.7 705.8 331.8C705.2 333.3 704.2 335 702.6 334.8C701 334.6 701.9 331.4 703 332.5" fill="#3C9968"/>
<path d="M573.9 238.8C573.9 237 573.7 235.2 573.6 233.4C573.5 231.7 571 231.7 570.9 233.4C570.8 235.2 570.6 237 570.6 238.8C570.6 240.4 570.3 242 571.1 243.4C571.6 244.3 572.9 244.3 573.4 243.4C574.3 242 574 240.4 573.9 238.8Z" fill="#22665C"/>
<path d="M610.5 261.1C610.2 259.8 608.5 260.1 608.1 261.1C607.4 262.9 607.3 265 607.1 266.9C606.9 268.7 606.2 270.6 607.2 272.2C607.6 272.9 608.7 273.1 609.3 272.5C610.6 271.1 610.3 269.2 610.5 267.3C610.6 265.2 610.9 263.2 610.5 261.1Z" fill="#22665C"/>
<path d="M575.2 276.7C575 274.8 575 272.8 575 270.9C575 268.9 572.2 269 572 270.9C571.8 273 571.7 275.1 571.7 277.1C571.7 278.9 571.6 280.6 572.9 281.9C573.5 282.5 574.6 282.4 575 281.6C575.9 280.1 575.4 278.4 575.2 276.7Z" fill="#22665C"/>
<path d="M505.1 267.9C504.9 265.8 504.5 263.7 504.2 261.6C504 260.5 502.2 260.8 502.2 261.9C502.2 264.2 502.2 266.5 502.3 268.9C502.4 270.9 502.3 272.8 503.1 274.6C503.5 275.6 505.1 275.2 505.3 274.3C505.9 272.2 505.3 270 505.1 267.9Z" fill="#22665C"/>
<path d="M485.4 275C485 272.8 484.6 270.7 484.3 268.5C484 266.7 481.2 267.5 481.5 269.3C481.8 271.3 482.2 273.4 482.5 275.4C482.8 277.2 483 279.1 483.9 280.8C484.3 281.5 485.7 281.5 485.8 280.5C486.1 278.5 485.7 276.8 485.4 275Z" fill="#22665C"/>
<path d="M257.3 283C251.7 274.2 250.4 262.9 253.9 253.1C255.9 247.4 259.9 241.9 265.8 240.2C275.1 237.5 283.9 245 290.7 251.9C286.8 237.4 292.5 220.8 304.5 211.9C311.4 206.8 320.3 204.1 328.7 205.7C337.1 207.3 344.8 213.4 347.3 221.6C349.5 229.1 347.5 237.4 350 244.7C355.7 237.5 366.9 236.7 375.4 240.4C383.9 244.1 390.3 251.2 396.4 258.2C404 249.9 413.4 240.8 424.6 242.1C434 243.2 441.2 251.8 443.7 261C446.2 270.2 444.9 279.9 443.6 289.3" fill="#3C9968"/>
<path d="M267.4 271.7C266.5 269.8 265.7 268 264.5 266.2C264.1 265.6 263.2 266 263.3 266.7C263.7 268.8 264.3 270.7 265 272.7C265.6 274.3 266 276.2 267.3 277.5C268 278.2 269.2 277.7 269.2 276.7C269.2 275 268.1 273.3 267.4 271.7Z" fill="#22665C"/>
<path d="M307.1 223.4C306.7 222 304.7 222.6 304.9 224C305.4 227.2 305.5 231.5 307.3 234.3C308 235.3 309.3 234.8 309.4 233.7C309.8 230.4 308 226.5 307.1 223.4Z" fill="#22665C"/>
<path d="M299.4 267.6C298.8 265.6 298.5 263.6 297.8 261.6C297.4 260.4 295.6 260.6 295.5 261.9C295.5 264 295.8 266 296.3 268.1C296.7 269.8 296.8 271.9 298.4 272.9C298.9 273.2 299.6 273 299.9 272.5C300.7 270.7 299.9 269.2 299.4 267.6Z" fill="#22665C"/>
<path d="M377.5 261C377.3 258.9 377.3 256.9 377.3 254.8C377.3 252.9 374.5 252.9 374.3 254.8C374.1 256.9 374 258.9 373.9 261C373.9 262.8 373.6 264.8 374.7 266.3C375.3 267.1 376.6 267.3 377.1 266.3C378.1 264.6 377.6 262.9 377.5 261Z" fill="#22665C"/>
<path d="M410 264.8C409.9 262.8 407.1 262.8 406.9 264.8C406.7 266.9 406.4 268.9 406.1 270.9C405.8 272.7 405.3 274.5 405.4 276.2C405.5 277.8 408 278.9 408.8 277.1C410.4 273.6 410.2 268.7 410 264.8Z" fill="#22665C"/>
<path d="M428.4 262.7C428.4 260.2 428.3 257.7 428.3 255.2C428.3 253.6 426 253.7 425.9 255.2C425.7 257.7 425.4 260.2 425.2 262.7C425.1 264.6 424.7 266.5 426 268.1C426.3 268.5 427 268.4 427.3 268.1C428.7 266.6 428.4 264.6 428.4 262.7Z" fill="#22665C"/>
<path d="M658.7 441.3H-91.3V316.9C156.7 265.1 406.8 254.8 658.7 287.3V441.3Z" fill="#B5C44D"/>
<path d="M268 321.1C267.2 318.8 265.6 316.7 264.4 314.6C263.8 313.5 262.1 314.5 262.7 315.6C263.9 317.7 265 320.1 266.6 321.9C267.1 322.6 268.3 321.9 268 321.1Z" fill="#4F7C2C"/>
<path d="M272.2 313.9C271.8 315.1 271.3 316.3 270.9 317.4C270.5 318.4 270 319.6 270.4 320.7C270.7 321.5 271.5 321.7 272.2 321.2C273.1 320.5 273.2 319.2 273.4 318.1C273.6 316.9 273.8 315.6 274 314.4C274.3 313.2 272.6 312.7 272.2 313.9Z" fill="#4F7C2C"/>
<path d="M278.6 315.8C277.2 317.3 274.6 319.3 275.3 321.6C275.4 322 275.7 322.2 276.1 322.2C278.5 322.4 279.9 319.3 281 317.6C281.9 316.2 279.8 314.6 278.6 315.8Z" fill="#4F7C2C"/>
<path d="M84.3999 312.4C83.0999 310.6 81.6999 308.8 80.2999 307C79.4999 306 77.7999 307.3 78.4999 308.4C79.6999 310.3 80.9999 312.2 82.2999 314.1C83.3999 315.6 84.2999 317.9 86.0999 318.7C86.7999 319 87.7999 318.7 87.6999 317.8C87.3999 315.7 85.5999 314.1 84.3999 312.4Z" fill="#4F7C2C"/>
<path d="M90.1999 311.3C89.7999 309.6 89.4999 307.9 89.3999 306.2C89.3999 304.7 87.1999 304.7 87.0999 306.2C86.8999 308.2 86.8999 310.1 87.3999 312.1C87.7999 313.6 88.2999 315.5 89.8999 316C90.3999 316.2 90.7999 315.8 90.9999 315.4C91.3999 314 90.4999 312.6 90.1999 311.3Z" fill="#4F7C2C"/>
<path d="M101.9 307.7C101.3 307.1 100.2 307 99.5999 307.7C97.9999 309.5 96.0999 311.3 94.9999 313.5C94.3999 314.7 95.7999 316.6 97.0999 315.6C98.0999 314.8 98.8999 314 99.6999 313C100.5 312 101.2 311.1 102 310.1C102.5 309.3 102.6 308.4 101.9 307.7Z" fill="#4F7C2C"/>
<path d="M425.6 293.3C423.9 291.5 422.1 289.8 420.3 288.1C419.1 286.9 417.3 288.7 418.5 289.9C420.2 291.7 421.9 293.5 423.7 295.2C424.9 296.4 426.8 294.6 425.6 293.3Z" fill="#4F7C2C"/>
<path d="M430.6 291.3C430.6 290.5 430.5 289.8 430.4 289C430.2 287.2 427.7 287.2 427.5 289C427.4 289.8 427.3 290.5 427.3 291.3C427.3 292.2 427.2 292.9 427.9 293.7C428.4 294.3 429.4 294.3 429.9 293.7C430.6 292.9 430.6 292.2 430.6 291.3Z" fill="#4F7C2C"/>
<path d="M435.5 290.5C434.8 291.8 434.2 293.1 433.7 294.5C433 296.4 436.1 297.8 437 295.9C437.6 294.5 438.1 293.2 438.5 291.8C439.1 290.1 436.3 288.8 435.5 290.5Z" fill="#4F7C2C"/>
<path d="M618 301.5C617.2 299.8 615.9 298.4 614.3 297.4C612.8 296.4 611.5 298.7 612.9 299.8C614 300.6 614.8 301.7 615.2 302.9C615.6 304.1 615.4 305.5 616.1 306.5C616.6 307.1 617.6 307.5 618.2 306.8C619.4 305.3 618.7 303.1 618 301.5Z" fill="#4F7C2C"/>
<path d="M624 298.5C623.9 296.8 621.5 296.8 621.3 298.5C621.1 300.6 621 302.6 620.8 304.7C620.8 305.3 621.2 306 621.7 306.3C622.4 306.6 622.8 306.6 623.5 306.3C624 306 624.4 305.3 624.4 304.7L624 298.5Z" fill="#4F7C2C"/>
<path d="M627.8 301.3C626.9 302.5 626 303.7 625.2 305.1C623.7 307.4 627.5 309.6 628.9 307.2C629.6 305.9 630.3 304.5 630.9 303.1C631.7 300.9 629.2 299.4 627.8 301.3Z" fill="#4F7C2C"/>
<path d="M536.7 342.1C536.3 339.8 534.9 337.5 533.4 335.8C531.9 334.1 529.4 336.6 530.9 338.3C532.1 339.7 532.7 341.3 533.2 343.1C534 345.3 537.1 344.4 536.7 342.1Z" fill="#4F7C2C"/>
<path d="M544.1 337.2C543.7 336 542.1 335.7 541.5 336.9C541 337.7 540.9 338.6 540.5 339.4C540.1 340.2 539.6 341 539 341.8C537.7 343.6 540.7 345.9 542.1 344.2C543.4 342.3 544.8 339.5 544.1 337.2Z" fill="#4F7C2C"/>
<path d="M548.4 340.1C546.9 341.6 545.2 343.1 544.4 345.1C543.8 346.6 545.8 347.9 547.1 347.1C548.9 346 550 343.9 551.3 342.3C552.5 340.6 549.8 338.6 548.4 340.1Z" fill="#4F7C2C"/>
<path d="M379.2 364.4C378.7 362 377.5 359.6 376.6 357.3C375.9 355.5 373.1 356.2 373.7 358.1C374.5 360.6 375.2 363.3 376.3 365.6C377.2 367.2 379.5 366.1 379.2 364.4Z" fill="#4F7C2C"/>
<path d="M385 356.2C383.4 358.4 381.9 361.9 383 364.6C383.6 366 386 366.5 386.3 364.6C386.7 362.2 386.4 360 387.5 357.7C388.4 355.9 386.1 354.7 385 356.2Z" fill="#4F7C2C"/>
<path d="M396.9 357.9C395.1 359.8 393.1 361.7 391.4 363.7C389.8 365.7 392.4 368.5 394.3 366.6C396.1 364.7 397.7 362.5 399.4 360.5C400.9 358.7 398.5 356.2 396.9 357.9Z" fill="#4F7C2C"/>
<path d="M181.12 109.216C180.528 109.216 180.048 109.08 179.68 108.808C179.312 108.52 179.024 108.08 178.816 107.488L174.136 94.456C173.88 93.736 173.92 93.128 174.256 92.632C174.608 92.12 175.224 91.864 176.104 91.864C176.696 91.864 177.16 92.008 177.496 92.296C177.832 92.568 178.096 93 178.288 93.592L181.864 104.32H180.736L184.576 93.592C184.8 93 185.08 92.568 185.416 92.296C185.752 92.008 186.184 91.864 186.712 91.864C187.24 91.864 187.664 92.008 187.984 92.296C188.304 92.568 188.568 93.008 188.776 93.616L192.376 104.32H191.416L195.088 93.592C195.28 93 195.536 92.568 195.856 92.296C196.192 92.008 196.656 91.864 197.248 91.864C197.984 91.864 198.52 92.12 198.856 92.632C199.208 93.128 199.248 93.736 198.976 94.456L194.248 107.512C194.04 108.088 193.752 108.52 193.384 108.808C193.032 109.08 192.56 109.216 191.968 109.216C191.36 109.216 190.872 109.08 190.504 108.808C190.152 108.52 189.872 108.08 189.664 107.488L186.28 97.984H186.88L183.424 107.512C183.2 108.088 182.912 108.52 182.56 108.808C182.208 109.08 181.728 109.216 181.12 109.216ZM204.493 109.216C203.821 109.216 203.301 109.032 202.933 108.664C202.565 108.296 202.381 107.76 202.381 107.056V94.024C202.381 93.32 202.565 92.784 202.933 92.416C203.301 92.048 203.821 91.864 204.493 91.864C205.181 91.864 205.709 92.048 206.077 92.416C206.461 92.784 206.653 93.32 206.653 94.024V99.256H206.269C206.653 98.504 207.197 97.928 207.901 97.528C208.621 97.128 209.437 96.928 210.349 96.928C211.293 96.928 212.069 97.112 212.677 97.48C213.285 97.832 213.741 98.392 214.045 99.16C214.349 99.912 214.501 100.864 214.501 102.016V107.056C214.501 107.76 214.317 108.296 213.949 108.664C213.581 109.032 213.053 109.216 212.365 109.216C211.677 109.216 211.149 109.032 210.781 108.664C210.413 108.296 210.229 107.76 210.229 107.056V102.184C210.229 101.464 210.101 100.952 209.845 100.648C209.605 100.344 209.245 100.192 208.765 100.192C208.125 100.192 207.613 100.4 207.229 100.816C206.845 101.216 206.653 101.76 206.653 102.448V107.056C206.653 108.496 205.933 109.216 204.493 109.216ZM221.04 109.264C220.128 109.264 219.32 109.096 218.616 108.76C217.928 108.424 217.384 107.968 216.984 107.392C216.6 106.8 216.408 106.128 216.408 105.376C216.408 104.512 216.632 103.832 217.08 103.336C217.528 102.84 218.248 102.488 219.24 102.28C220.232 102.056 221.552 101.944 223.2 101.944H224.52V103.96H223.2C222.576 103.96 222.056 104.008 221.64 104.104C221.24 104.184 220.944 104.32 220.752 104.512C220.56 104.688 220.464 104.92 220.464 105.208C220.464 105.576 220.592 105.88 220.848 106.12C221.12 106.36 221.504 106.48 222 106.48C222.4 106.48 222.752 106.392 223.056 106.216C223.376 106.04 223.632 105.8 223.824 105.496C224.016 105.176 224.112 104.808 224.112 104.392V101.608C224.112 101.032 223.96 100.624 223.656 100.384C223.368 100.144 222.864 100.024 222.144 100.024C221.76 100.024 221.328 100.072 220.848 100.168C220.368 100.248 219.832 100.4 219.24 100.624C218.808 100.784 218.44 100.808 218.136 100.696C217.832 100.584 217.592 100.392 217.416 100.12C217.256 99.848 217.176 99.552 217.176 99.232C217.192 98.912 217.296 98.608 217.488 98.32C217.696 98.032 218.008 97.808 218.424 97.648C219.192 97.36 219.896 97.168 220.536 97.072C221.192 96.976 221.792 96.928 222.336 96.928C223.648 96.928 224.728 97.12 225.576 97.504C226.44 97.872 227.08 98.448 227.496 99.232C227.928 100 228.144 100.992 228.144 102.208V107.056C228.144 107.76 227.976 108.296 227.64 108.664C227.304 109.032 226.816 109.216 226.176 109.216C225.52 109.216 225.016 109.032 224.664 108.664C224.328 108.296 224.16 107.76 224.16 107.056V106.432L224.304 106.768C224.224 107.28 224.04 107.72 223.752 108.088C223.464 108.456 223.088 108.744 222.624 108.952C222.16 109.16 221.632 109.264 221.04 109.264ZM236.768 109.264C235.568 109.264 234.576 109.08 233.792 108.712C233.024 108.344 232.448 107.792 232.064 107.056C231.68 106.304 231.488 105.368 231.488 104.248V100.336H230.672C230.16 100.336 229.76 100.2 229.472 99.928C229.2 99.656 229.064 99.264 229.064 98.752C229.064 98.24 229.2 97.856 229.472 97.6C229.76 97.328 230.16 97.192 230.672 97.192H231.488V95.704C231.488 95 231.672 94.464 232.04 94.096C232.408 93.728 232.936 93.544 233.624 93.544C234.312 93.544 234.84 93.728 235.208 94.096C235.576 94.464 235.76 95 235.76 95.704V97.192H237.728C238.256 97.192 238.656 97.328 238.928 97.6C239.216 97.856 239.36 98.24 239.36 98.752C239.36 99.264 239.216 99.656 238.928 99.928C238.656 100.2 238.256 100.336 237.728 100.336H235.76V104.104C235.76 104.696 235.896 105.136 236.168 105.424C236.456 105.696 236.904 105.832 237.512 105.832C237.736 105.832 237.952 105.808 238.16 105.76C238.368 105.712 238.56 105.688 238.736 105.688C238.992 105.672 239.2 105.752 239.36 105.928C239.52 106.088 239.6 106.464 239.6 107.056C239.6 107.536 239.528 107.944 239.384 108.28C239.24 108.6 238.984 108.832 238.616 108.976C238.392 109.056 238.088 109.12 237.704 109.168C237.32 109.232 237.008 109.264 236.768 109.264ZM243.575 99.328C243.319 99.68 243.031 99.872 242.711 99.904C242.407 99.936 242.143 99.872 241.919 99.712C241.695 99.552 241.567 99.328 241.535 99.04C241.503 98.736 241.639 98.408 241.943 98.056C242.343 97.592 242.607 97.128 242.735 96.664C242.863 96.2 242.927 95.784 242.927 95.416L243.071 96.592C242.335 96.592 241.743 96.384 241.295 95.968C240.847 95.552 240.623 94.984 240.623 94.264C240.623 93.56 240.831 93 241.247 92.584C241.679 92.152 242.255 91.936 242.975 91.936C243.727 91.936 244.311 92.192 244.727 92.704C245.143 93.2 245.351 93.896 245.351 94.792C245.351 95.24 245.303 95.696 245.207 96.16C245.127 96.624 244.959 97.12 244.703 97.648C244.463 98.16 244.087 98.72 243.575 99.328ZM251.569 109.264C250.865 109.264 250.145 109.208 249.409 109.096C248.689 109 248.033 108.816 247.441 108.544C247.041 108.384 246.753 108.168 246.577 107.896C246.417 107.624 246.337 107.336 246.337 107.032C246.353 106.728 246.441 106.456 246.601 106.216C246.777 105.96 247.001 105.784 247.273 105.688C247.561 105.576 247.881 105.584 248.233 105.712C248.905 105.952 249.505 106.128 250.033 106.24C250.577 106.336 251.097 106.384 251.593 106.384C252.185 106.384 252.609 106.304 252.865 106.144C253.121 105.968 253.249 105.744 253.249 105.472C253.249 105.232 253.161 105.048 252.985 104.92C252.825 104.792 252.593 104.704 252.289 104.656L249.625 104.224C248.633 104.048 247.865 103.688 247.321 103.144C246.777 102.584 246.505 101.856 246.505 100.96C246.505 100.128 246.737 99.416 247.201 98.824C247.681 98.216 248.329 97.752 249.145 97.432C249.977 97.096 250.929 96.928 252.001 96.928C252.721 96.928 253.377 96.984 253.969 97.096C254.561 97.192 255.137 97.376 255.697 97.648C256.049 97.792 256.297 98 256.441 98.272C256.585 98.544 256.641 98.832 256.609 99.136C256.577 99.424 256.473 99.696 256.297 99.952C256.137 100.192 255.913 100.36 255.625 100.456C255.337 100.536 255.001 100.512 254.617 100.384C254.089 100.176 253.617 100.024 253.201 99.928C252.801 99.832 252.425 99.784 252.073 99.784C251.417 99.784 250.953 99.872 250.681 100.048C250.409 100.224 250.273 100.448 250.273 100.72C250.273 100.928 250.345 101.104 250.489 101.248C250.633 101.376 250.857 101.464 251.161 101.512L253.825 101.968C254.849 102.128 255.633 102.48 256.177 103.024C256.737 103.552 257.017 104.272 257.017 105.184C257.017 106.48 256.521 107.488 255.529 108.208C254.537 108.912 253.217 109.264 251.569 109.264ZM269.071 113.536C268.575 113.536 268.175 113.408 267.871 113.152C267.567 112.896 267.375 112.56 267.295 112.144C267.231 111.728 267.303 111.288 267.511 110.824L269.119 107.344V109.072L265.015 99.688C264.807 99.208 264.735 98.76 264.799 98.344C264.879 97.928 265.095 97.6 265.447 97.36C265.799 97.104 266.279 96.976 266.887 96.976C267.399 96.976 267.807 97.096 268.111 97.336C268.431 97.56 268.719 98.008 268.975 98.68L271.375 104.92H270.559L273.103 98.656C273.359 98 273.647 97.56 273.967 97.336C274.303 97.096 274.751 96.976 275.311 96.976C275.791 96.976 276.175 97.104 276.463 97.36C276.751 97.6 276.927 97.928 276.991 98.344C277.055 98.76 276.983 99.208 276.775 99.688L271.327 111.928C271.039 112.568 270.719 112.992 270.367 113.2C270.031 113.424 269.599 113.536 269.071 113.536ZM284.294 109.264C282.982 109.264 281.838 109.016 280.862 108.52C279.886 108.024 279.126 107.312 278.582 106.384C278.038 105.456 277.766 104.36 277.766 103.096C277.766 102.136 277.918 101.28 278.222 100.528C278.526 99.76 278.966 99.112 279.542 98.584C280.118 98.04 280.806 97.632 281.606 97.36C282.406 97.072 283.302 96.928 284.294 96.928C285.606 96.928 286.75 97.176 287.726 97.672C288.702 98.168 289.454 98.88 289.982 99.808C290.526 100.72 290.798 101.816 290.798 103.096C290.798 104.04 290.646 104.896 290.342 105.664C290.038 106.432 289.598 107.088 289.022 107.632C288.462 108.16 287.774 108.568 286.958 108.856C286.158 109.128 285.27 109.264 284.294 109.264ZM284.294 106.12C284.726 106.12 285.11 106.016 285.446 105.808C285.782 105.584 286.038 105.256 286.214 104.824C286.406 104.376 286.502 103.8 286.502 103.096C286.502 102.024 286.294 101.256 285.878 100.792C285.462 100.312 284.934 100.072 284.294 100.072C283.862 100.072 283.478 100.176 283.142 100.384C282.806 100.592 282.542 100.92 282.35 101.368C282.158 101.8 282.062 102.376 282.062 103.096C282.062 104.152 282.27 104.92 282.686 105.4C283.102 105.88 283.638 106.12 284.294 106.12ZM297.172 109.264C296.148 109.264 295.308 109.08 294.652 108.712C293.996 108.328 293.5 107.76 293.164 107.008C292.844 106.256 292.684 105.304 292.684 104.152V99.112C292.684 98.408 292.868 97.88 293.236 97.528C293.604 97.16 294.132 96.976 294.82 96.976C295.508 96.976 296.036 97.16 296.404 97.528C296.772 97.88 296.956 98.408 296.956 99.112V104.272C296.956 104.848 297.076 105.28 297.316 105.568C297.556 105.856 297.932 106 298.444 106C299.02 106 299.492 105.792 299.86 105.376C300.228 104.96 300.412 104.408 300.412 103.72V99.112C300.412 98.408 300.596 97.88 300.964 97.528C301.332 97.16 301.86 96.976 302.548 96.976C303.236 96.976 303.764 97.16 304.132 97.528C304.5 97.88 304.684 98.408 304.684 99.112V107.056C304.684 108.496 303.996 109.216 302.62 109.216C301.948 109.216 301.428 109.032 301.06 108.664C300.692 108.296 300.508 107.76 300.508 107.056V105.664L300.892 106.84C300.54 107.624 300.044 108.224 299.404 108.64C298.78 109.056 298.036 109.264 297.172 109.264ZM309.354 109.216C308.65 109.216 308.106 109.032 307.722 108.664C307.354 108.296 307.17 107.76 307.17 107.056V99.112C307.17 98.424 307.346 97.896 307.698 97.528C308.066 97.16 308.586 96.976 309.258 96.976C309.93 96.976 310.442 97.16 310.794 97.528C311.146 97.896 311.322 98.424 311.322 99.112V100.096H311.082C311.242 99.136 311.65 98.376 312.306 97.816C312.978 97.256 313.81 96.96 314.802 96.928C315.266 96.912 315.61 97.032 315.834 97.288C316.074 97.528 316.202 97.984 316.218 98.656C316.218 99.232 316.098 99.688 315.858 100.024C315.618 100.36 315.162 100.56 314.49 100.624L313.938 100.672C313.09 100.752 312.474 100.992 312.09 101.392C311.706 101.776 311.514 102.352 311.514 103.12V107.056C311.514 107.76 311.33 108.296 310.962 108.664C310.594 109.032 310.058 109.216 309.354 109.216ZM330.467 109.264C329.139 109.264 327.979 109.016 326.987 108.52C326.011 108.024 325.251 107.312 324.707 106.384C324.163 105.44 323.891 104.336 323.891 103.072C323.891 102.112 324.043 101.256 324.347 100.504C324.651 99.736 325.091 99.088 325.667 98.56C326.259 98.032 326.955 97.632 327.755 97.36C328.571 97.072 329.475 96.928 330.467 96.928C330.931 96.928 331.419 96.976 331.931 97.072C332.443 97.152 332.971 97.312 333.515 97.552C333.899 97.696 334.163 97.92 334.307 98.224C334.467 98.512 334.531 98.824 334.499 99.16C334.483 99.496 334.387 99.8 334.211 100.072C334.051 100.344 333.819 100.528 333.515 100.624C333.227 100.72 332.899 100.68 332.531 100.504C332.275 100.376 332.003 100.288 331.715 100.24C331.443 100.176 331.179 100.144 330.923 100.144C330.491 100.144 330.107 100.208 329.771 100.336C329.451 100.464 329.179 100.656 328.955 100.912C328.731 101.152 328.555 101.456 328.427 101.824C328.315 102.192 328.259 102.608 328.259 103.072C328.259 104 328.491 104.728 328.955 105.256C329.419 105.784 330.075 106.048 330.923 106.048C331.179 106.048 331.443 106.024 331.715 105.976C331.987 105.912 332.259 105.816 332.531 105.688C332.899 105.512 333.227 105.48 333.515 105.592C333.803 105.688 334.035 105.872 334.211 106.144C334.387 106.416 334.483 106.72 334.499 107.056C334.515 107.376 334.443 107.688 334.283 107.992C334.123 108.28 333.851 108.496 333.467 108.64C332.939 108.88 332.419 109.04 331.907 109.12C331.411 109.216 330.931 109.264 330.467 109.264ZM338.18 109.216C337.508 109.216 336.988 109.032 336.62 108.664C336.252 108.296 336.068 107.76 336.068 107.056V94.024C336.068 93.32 336.252 92.784 336.62 92.416C336.988 92.048 337.508 91.864 338.18 91.864C338.868 91.864 339.396 92.048 339.764 92.416C340.148 92.784 340.34 93.32 340.34 94.024V99.256H339.956C340.34 98.504 340.884 97.928 341.588 97.528C342.308 97.128 343.124 96.928 344.036 96.928C344.98 96.928 345.756 97.112 346.364 97.48C346.972 97.832 347.428 98.392 347.732 99.16C348.036 99.912 348.188 100.864 348.188 102.016V107.056C348.188 107.76 348.004 108.296 347.636 108.664C347.268 109.032 346.74 109.216 346.052 109.216C345.364 109.216 344.836 109.032 344.468 108.664C344.1 108.296 343.916 107.76 343.916 107.056V102.184C343.916 101.464 343.788 100.952 343.532 100.648C343.292 100.344 342.932 100.192 342.452 100.192C341.812 100.192 341.3 100.4 340.916 100.816C340.532 101.216 340.34 101.76 340.34 102.448V107.056C340.34 108.496 339.62 109.216 338.18 109.216ZM352.735 109.216C352.063 109.216 351.543 109.016 351.175 108.616C350.807 108.216 350.623 107.64 350.623 106.888V99.304C350.623 98.552 350.807 97.976 351.175 97.576C351.543 97.176 352.063 96.976 352.735 96.976C353.423 96.976 353.951 97.176 354.319 97.576C354.703 97.976 354.895 98.552 354.895 99.304V106.888C354.895 107.64 354.711 108.216 354.343 108.616C353.975 109.016 353.439 109.216 352.735 109.216ZM352.735 95.272C351.983 95.272 351.399 95.096 350.983 94.744C350.583 94.392 350.383 93.88 350.383 93.208C350.383 92.552 350.583 92.048 350.983 91.696C351.399 91.344 351.983 91.168 352.735 91.168C353.519 91.168 354.111 91.344 354.511 91.696C354.911 92.048 355.111 92.552 355.111 93.208C355.111 93.88 354.911 94.392 354.511 94.744C354.111 95.096 353.519 95.272 352.735 95.272ZM361.861 109.264C360.325 109.264 359.189 108.856 358.453 108.04C357.733 107.208 357.373 105.96 357.373 104.296V94.024C357.373 93.32 357.557 92.784 357.925 92.416C358.293 92.048 358.813 91.864 359.485 91.864C360.173 91.864 360.701 92.048 361.069 92.416C361.453 92.784 361.645 93.32 361.645 94.024V104.152C361.645 104.744 361.757 105.176 361.981 105.448C362.221 105.72 362.525 105.856 362.893 105.856C363.005 105.856 363.117 105.848 363.229 105.832C363.357 105.8 363.493 105.776 363.637 105.76C363.909 105.76 364.109 105.864 364.237 106.072C364.381 106.28 364.453 106.704 364.453 107.344C364.453 107.904 364.341 108.328 364.117 108.616C363.893 108.888 363.549 109.064 363.085 109.144C362.957 109.16 362.773 109.184 362.533 109.216C362.293 109.248 362.069 109.264 361.861 109.264ZM370.208 109.264C369.2 109.264 368.304 109.016 367.52 108.52C366.752 108.024 366.144 107.312 365.696 106.384C365.264 105.456 365.048 104.36 365.048 103.096C365.048 101.8 365.264 100.696 365.696 99.784C366.144 98.872 366.752 98.168 367.52 97.672C368.304 97.176 369.2 96.928 370.208 96.928C371.088 96.928 371.88 97.136 372.584 97.552C373.288 97.968 373.76 98.504 374 99.16H373.736V94.024C373.736 93.32 373.92 92.784 374.288 92.416C374.656 92.048 375.184 91.864 375.872 91.864C376.544 91.864 377.064 92.048 377.432 92.416C377.816 92.784 378.008 93.32 378.008 94.024V107.056C378.008 107.76 377.824 108.296 377.456 108.664C377.104 109.032 376.584 109.216 375.896 109.216C375.224 109.216 374.704 109.032 374.336 108.664C373.968 108.296 373.784 107.76 373.784 107.056V105.688L374.048 106.864C373.824 107.584 373.352 108.168 372.632 108.616C371.928 109.048 371.12 109.264 370.208 109.264ZM371.576 106.12C372.008 106.12 372.392 106.016 372.728 105.808C373.064 105.584 373.32 105.256 373.496 104.824C373.688 104.376 373.784 103.8 373.784 103.096C373.784 102.024 373.576 101.256 373.16 100.792C372.744 100.312 372.216 100.072 371.576 100.072C371.144 100.072 370.76 100.176 370.424 100.384C370.088 100.592 369.824 100.92 369.632 101.368C369.44 101.8 369.344 102.376 369.344 103.096C369.344 104.152 369.552 104.92 369.968 105.4C370.384 105.88 370.92 106.12 371.576 106.12ZM384.012 99.328C383.756 99.68 383.468 99.872 383.148 99.904C382.844 99.936 382.58 99.872 382.356 99.712C382.132 99.552 382.004 99.328 381.972 99.04C381.94 98.736 382.076 98.408 382.38 98.056C382.78 97.592 383.044 97.128 383.172 96.664C383.3 96.2 383.364 95.784 383.364 95.416L383.508 96.592C382.772 96.592 382.18 96.384 381.732 95.968C381.284 95.552 381.06 94.984 381.06 94.264C381.06 93.56 381.268 93 381.684 92.584C382.116 92.152 382.692 91.936 383.412 91.936C384.164 91.936 384.748 92.192 385.164 92.704C385.58 93.2 385.788 93.896 385.788 94.792C385.788 95.24 385.74 95.696 385.644 96.16C385.564 96.624 385.396 97.12 385.14 97.648C384.9 98.16 384.524 98.72 384.012 99.328ZM392.007 109.264C391.303 109.264 390.583 109.208 389.847 109.096C389.127 109 388.471 108.816 387.879 108.544C387.479 108.384 387.191 108.168 387.015 107.896C386.855 107.624 386.775 107.336 386.775 107.032C386.791 106.728 386.879 106.456 387.039 106.216C387.215 105.96 387.439 105.784 387.711 105.688C387.999 105.576 388.319 105.584 388.671 105.712C389.343 105.952 389.943 106.128 390.471 106.24C391.015 106.336 391.535 106.384 392.031 106.384C392.623 106.384 393.047 106.304 393.303 106.144C393.559 105.968 393.687 105.744 393.687 105.472C393.687 105.232 393.599 105.048 393.423 104.92C393.263 104.792 393.031 104.704 392.727 104.656L390.063 104.224C389.071 104.048 388.303 103.688 387.759 103.144C387.215 102.584 386.943 101.856 386.943 100.96C386.943 100.128 387.175 99.416 387.639 98.824C388.119 98.216 388.767 97.752 389.583 97.432C390.415 97.096 391.367 96.928 392.439 96.928C393.159 96.928 393.815 96.984 394.407 97.096C394.999 97.192 395.575 97.376 396.135 97.648C396.487 97.792 396.735 98 396.879 98.272C397.023 98.544 397.079 98.832 397.047 99.136C397.015 99.424 396.911 99.696 396.735 99.952C396.575 100.192 396.351 100.36 396.063 100.456C395.775 100.536 395.439 100.512 395.055 100.384C394.527 100.176 394.055 100.024 393.639 99.928C393.239 99.832 392.863 99.784 392.511 99.784C391.855 99.784 391.391 99.872 391.119 100.048C390.847 100.224 390.711 100.448 390.711 100.72C390.711 100.928 390.783 101.104 390.927 101.248C391.071 101.376 391.295 101.464 391.599 101.512L394.263 101.968C395.287 102.128 396.071 102.48 396.615 103.024C397.175 103.552 397.455 104.272 397.455 105.184C397.455 106.48 396.959 107.488 395.967 108.208C394.975 108.912 393.655 109.264 392.007 109.264ZM408.188 109.216C407.516 109.216 406.996 109.032 406.628 108.664C406.26 108.296 406.076 107.76 406.076 107.056V99.112C406.076 98.424 406.252 97.896 406.604 97.528C406.972 97.16 407.492 96.976 408.164 96.976C408.836 96.976 409.348 97.16 409.7 97.528C410.052 97.896 410.228 98.424 410.228 99.112V100.24L409.964 99.256C410.348 98.504 410.892 97.928 411.596 97.528C412.316 97.128 413.132 96.928 414.044 96.928C414.988 96.928 415.764 97.112 416.372 97.48C416.98 97.832 417.436 98.392 417.74 99.16C418.044 99.912 418.196 100.864 418.196 102.016V107.056C418.196 107.76 418.012 108.296 417.644 108.664C417.276 109.032 416.748 109.216 416.06 109.216C415.372 109.216 414.844 109.032 414.476 108.664C414.108 108.296 413.924 107.76 413.924 107.056V102.184C413.924 101.464 413.796 100.952 413.54 100.648C413.3 100.344 412.94 100.192 412.46 100.192C411.82 100.192 411.308 100.4 410.924 100.816C410.54 101.216 410.348 101.76 410.348 102.448V107.056C410.348 108.496 409.628 109.216 408.188 109.216ZM424.735 109.264C423.823 109.264 423.015 109.096 422.311 108.76C421.623 108.424 421.079 107.968 420.679 107.392C420.295 106.8 420.103 106.128 420.103 105.376C420.103 104.512 420.327 103.832 420.775 103.336C421.223 102.84 421.943 102.488 422.935 102.28C423.927 102.056 425.247 101.944 426.895 101.944H428.215V103.96H426.895C426.271 103.96 425.751 104.008 425.335 104.104C424.935 104.184 424.639 104.32 424.447 104.512C424.255 104.688 424.159 104.92 424.159 105.208C424.159 105.576 424.287 105.88 424.543 106.12C424.815 106.36 425.199 106.48 425.695 106.48C426.095 106.48 426.447 106.392 426.751 106.216C427.071 106.04 427.327 105.8 427.519 105.496C427.711 105.176 427.807 104.808 427.807 104.392V101.608C427.807 101.032 427.655 100.624 427.351 100.384C427.063 100.144 426.559 100.024 425.839 100.024C425.455 100.024 425.023 100.072 424.543 100.168C424.063 100.248 423.527 100.4 422.935 100.624C422.503 100.784 422.135 100.808 421.831 100.696C421.527 100.584 421.287 100.392 421.111 100.12C420.951 99.848 420.871 99.552 420.871 99.232C420.887 98.912 420.991 98.608 421.183 98.32C421.391 98.032 421.703 97.808 422.119 97.648C422.887 97.36 423.591 97.168 424.231 97.072C424.887 96.976 425.487 96.928 426.031 96.928C427.343 96.928 428.423 97.12 429.271 97.504C430.135 97.872 430.775 98.448 431.191 99.232C431.623 100 431.839 100.992 431.839 102.208V107.056C431.839 107.76 431.671 108.296 431.335 108.664C430.999 109.032 430.511 109.216 429.871 109.216C429.215 109.216 428.711 109.032 428.359 108.664C428.023 108.296 427.855 107.76 427.855 107.056V106.432L427.999 106.768C427.919 107.28 427.735 107.72 427.447 108.088C427.159 108.456 426.783 108.744 426.319 108.952C425.855 109.16 425.327 109.264 424.735 109.264ZM436.431 109.216C435.759 109.216 435.239 109.032 434.871 108.664C434.503 108.296 434.319 107.76 434.319 107.056V99.112C434.319 98.424 434.495 97.896 434.847 97.528C435.215 97.16 435.735 96.976 436.407 96.976C437.079 96.976 437.591 97.16 437.943 97.528C438.295 97.896 438.471 98.424 438.471 99.112V100.432L438.207 99.256C438.543 98.552 439.039 97.992 439.695 97.576C440.367 97.144 441.159 96.928 442.071 96.928C442.935 96.928 443.671 97.136 444.279 97.552C444.903 97.968 445.351 98.6 445.623 99.448H445.287C445.655 98.664 446.207 98.048 446.943 97.6C447.679 97.152 448.495 96.928 449.391 96.928C450.319 96.928 451.079 97.112 451.671 97.48C452.263 97.832 452.703 98.392 452.991 99.16C453.295 99.912 453.447 100.864 453.447 102.016V107.056C453.447 107.76 453.255 108.296 452.871 108.664C452.503 109.032 451.975 109.216 451.287 109.216C450.615 109.216 450.095 109.032 449.727 108.664C449.359 108.296 449.175 107.76 449.175 107.056V102.136C449.175 101.448 449.071 100.952 448.863 100.648C448.655 100.344 448.311 100.192 447.831 100.192C447.239 100.192 446.783 100.4 446.463 100.816C446.159 101.232 446.007 101.824 446.007 102.592V107.056C446.007 107.76 445.823 108.296 445.455 108.664C445.087 109.032 444.559 109.216 443.871 109.216C443.183 109.216 442.655 109.032 442.287 108.664C441.919 108.296 441.735 107.76 441.735 107.056V102.136C441.735 101.448 441.631 100.952 441.423 100.648C441.215 100.344 440.871 100.192 440.391 100.192C439.815 100.192 439.367 100.4 439.047 100.816C438.743 101.232 438.591 101.824 438.591 102.592V107.056C438.591 108.496 437.871 109.216 436.431 109.216ZM462.36 109.264C460.92 109.264 459.672 109.016 458.616 108.52C457.576 108.008 456.776 107.288 456.216 106.36C455.656 105.432 455.376 104.336 455.376 103.072C455.376 101.856 455.64 100.792 456.168 99.88C456.712 98.952 457.448 98.232 458.376 97.72C459.32 97.192 460.392 96.928 461.592 96.928C462.472 96.928 463.272 97.072 463.992 97.36C464.712 97.632 465.328 98.04 465.84 98.584C466.352 99.112 466.736 99.752 466.992 100.504C467.264 101.256 467.4 102.096 467.4 103.024C467.4 103.344 467.312 103.584 467.136 103.744C466.96 103.888 466.68 103.96 466.296 103.96H458.952V101.944H464.28L463.896 102.256C463.896 101.664 463.816 101.184 463.656 100.816C463.496 100.448 463.256 100.168 462.936 99.976C462.632 99.784 462.248 99.688 461.784 99.688C461.288 99.688 460.856 99.808 460.488 100.048C460.136 100.272 459.864 100.608 459.672 101.056C459.48 101.504 459.384 102.064 459.384 102.736V102.952C459.384 104.088 459.632 104.904 460.128 105.4C460.64 105.88 461.424 106.12 462.48 106.12C462.832 106.12 463.232 106.08 463.68 106C464.144 105.904 464.584 105.776 465 105.616C465.416 105.456 465.776 105.432 466.08 105.544C466.384 105.64 466.616 105.816 466.776 106.072C466.952 106.312 467.048 106.592 467.064 106.912C467.08 107.216 467.008 107.52 466.848 107.824C466.688 108.112 466.424 108.336 466.056 108.496C465.496 108.752 464.896 108.944 464.256 109.072C463.632 109.2 463 109.264 462.36 109.264Z" fill="#F95738"/>
<rect x="150.5" y="151.5" width="339" height="39" rx="19.5" fill="white" stroke="#F95738"/>
<path d="M185.08 175C184.673 175 184.361 174.896 184.144 174.688C183.936 174.471 183.832 174.164 183.832 173.765V167.07C183.832 166.671 183.936 166.368 184.144 166.16C184.361 165.943 184.673 165.835 185.08 165.835H189.487C189.799 165.835 190.033 165.913 190.189 166.069C190.345 166.225 190.423 166.45 190.423 166.745C190.423 167.048 190.345 167.282 190.189 167.447C190.033 167.603 189.799 167.681 189.487 167.681H186.12V169.423H189.201C189.504 169.423 189.734 169.501 189.89 169.657C190.055 169.813 190.137 170.043 190.137 170.346C190.137 170.649 190.055 170.879 189.89 171.035C189.734 171.191 189.504 171.269 189.201 171.269H186.12V173.154H189.487C189.799 173.154 190.033 173.236 190.189 173.401C190.345 173.557 190.423 173.782 190.423 174.077C190.423 174.38 190.345 174.61 190.189 174.766C190.033 174.922 189.799 175 189.487 175H185.08ZM192.805 175.117C192.441 175.117 192.16 175.017 191.96 174.818C191.761 174.619 191.661 174.328 191.661 173.947V169.644C191.661 169.271 191.757 168.985 191.947 168.786C192.147 168.587 192.428 168.487 192.792 168.487C193.156 168.487 193.434 168.587 193.624 168.786C193.815 168.985 193.91 169.271 193.91 169.644V170.255L193.767 169.722C193.975 169.315 194.27 169.003 194.651 168.786C195.041 168.569 195.483 168.461 195.977 168.461C196.489 168.461 196.909 168.561 197.238 168.76C197.568 168.951 197.815 169.254 197.979 169.67C198.144 170.077 198.226 170.593 198.226 171.217V173.947C198.226 174.328 198.127 174.619 197.927 174.818C197.728 175.017 197.442 175.117 197.069 175.117C196.697 175.117 196.411 175.017 196.211 174.818C196.012 174.619 195.912 174.328 195.912 173.947V171.308C195.912 170.918 195.843 170.641 195.704 170.476C195.574 170.311 195.379 170.229 195.119 170.229C194.773 170.229 194.495 170.342 194.287 170.567C194.079 170.784 193.975 171.078 193.975 171.451V173.947C193.975 174.727 193.585 175.117 192.805 175.117ZM202.899 175.143C202.249 175.143 201.712 175.043 201.287 174.844C200.871 174.645 200.559 174.346 200.351 173.947C200.143 173.54 200.039 173.033 200.039 172.426V170.307H199.597C199.32 170.307 199.103 170.233 198.947 170.086C198.8 169.939 198.726 169.726 198.726 169.449C198.726 169.172 198.8 168.964 198.947 168.825C199.103 168.678 199.32 168.604 199.597 168.604H200.039V167.798C200.039 167.417 200.139 167.126 200.338 166.927C200.537 166.728 200.823 166.628 201.196 166.628C201.569 166.628 201.855 166.728 202.054 166.927C202.253 167.126 202.353 167.417 202.353 167.798V168.604H203.419C203.705 168.604 203.922 168.678 204.069 168.825C204.225 168.964 204.303 169.172 204.303 169.449C204.303 169.726 204.225 169.939 204.069 170.086C203.922 170.233 203.705 170.307 203.419 170.307H202.353V172.348C202.353 172.669 202.427 172.907 202.574 173.063C202.73 173.21 202.973 173.284 203.302 173.284C203.423 173.284 203.54 173.271 203.653 173.245C203.766 173.219 203.87 173.206 203.965 173.206C204.104 173.197 204.216 173.241 204.303 173.336C204.39 173.423 204.433 173.626 204.433 173.947C204.433 174.207 204.394 174.428 204.316 174.61C204.238 174.783 204.099 174.909 203.9 174.987C203.779 175.03 203.614 175.065 203.406 175.091C203.198 175.126 203.029 175.143 202.899 175.143ZM208.501 175.143C207.721 175.143 207.045 175.009 206.473 174.74C205.909 174.463 205.476 174.073 205.173 173.57C204.869 173.067 204.718 172.474 204.718 171.789C204.718 171.13 204.861 170.554 205.147 170.06C205.441 169.557 205.84 169.167 206.343 168.89C206.854 168.604 207.435 168.461 208.085 168.461C208.561 168.461 208.995 168.539 209.385 168.695C209.775 168.842 210.108 169.063 210.386 169.358C210.663 169.644 210.871 169.991 211.01 170.398C211.157 170.805 211.231 171.26 211.231 171.763C211.231 171.936 211.183 172.066 211.088 172.153C210.992 172.231 210.841 172.27 210.633 172.27H206.655V171.178H209.541L209.333 171.347C209.333 171.026 209.289 170.766 209.203 170.567C209.116 170.368 208.986 170.216 208.813 170.112C208.648 170.008 208.44 169.956 208.189 169.956C207.92 169.956 207.686 170.021 207.487 170.151C207.296 170.272 207.149 170.454 207.045 170.697C206.941 170.94 206.889 171.243 206.889 171.607V171.724C206.889 172.339 207.023 172.781 207.292 173.05C207.569 173.31 207.994 173.44 208.566 173.44C208.756 173.44 208.973 173.418 209.216 173.375C209.467 173.323 209.705 173.254 209.931 173.167C210.156 173.08 210.351 173.067 210.516 173.128C210.68 173.18 210.806 173.275 210.893 173.414C210.988 173.544 211.04 173.696 211.049 173.869C211.057 174.034 211.018 174.198 210.932 174.363C210.845 174.519 210.702 174.64 210.503 174.727C210.199 174.866 209.874 174.97 209.528 175.039C209.19 175.108 208.847 175.143 208.501 175.143ZM213.411 175.117C213.029 175.117 212.735 175.017 212.527 174.818C212.327 174.619 212.228 174.328 212.228 173.947V169.644C212.228 169.271 212.323 168.985 212.514 168.786C212.713 168.587 212.995 168.487 213.359 168.487C213.723 168.487 214 168.587 214.191 168.786C214.381 168.985 214.477 169.271 214.477 169.644V170.177H214.347C214.433 169.657 214.654 169.245 215.01 168.942C215.374 168.639 215.824 168.478 216.362 168.461C216.613 168.452 216.799 168.517 216.921 168.656C217.051 168.786 217.12 169.033 217.129 169.397C217.129 169.709 217.064 169.956 216.934 170.138C216.804 170.32 216.557 170.428 216.193 170.463L215.894 170.489C215.434 170.532 215.101 170.662 214.893 170.879C214.685 171.087 214.581 171.399 214.581 171.815V173.947C214.581 174.328 214.481 174.619 214.282 174.818C214.082 175.017 213.792 175.117 213.411 175.117ZM222.728 175.117C222.364 175.117 222.083 175.017 221.883 174.818C221.684 174.619 221.584 174.328 221.584 173.947V169.644C221.584 169.271 221.68 168.985 221.87 168.786C222.07 168.587 222.351 168.487 222.715 168.487C223.079 168.487 223.357 168.587 223.547 168.786C223.738 168.985 223.833 169.271 223.833 169.644V170.255L223.69 169.722C223.898 169.315 224.193 169.003 224.574 168.786C224.964 168.569 225.406 168.461 225.9 168.461C226.412 168.461 226.832 168.561 227.161 168.76C227.491 168.951 227.738 169.254 227.902 169.67C228.067 170.077 228.149 170.593 228.149 171.217V173.947C228.149 174.328 228.05 174.619 227.85 174.818C227.651 175.017 227.365 175.117 226.992 175.117C226.62 175.117 226.334 175.017 226.134 174.818C225.935 174.619 225.835 174.328 225.835 173.947V171.308C225.835 170.918 225.766 170.641 225.627 170.476C225.497 170.311 225.302 170.229 225.042 170.229C224.696 170.229 224.418 170.342 224.21 170.567C224.002 170.784 223.898 171.078 223.898 171.451V173.947C223.898 174.727 223.508 175.117 222.728 175.117ZM231.691 175.143C231.197 175.143 230.759 175.052 230.378 174.87C230.005 174.688 229.711 174.441 229.494 174.129C229.286 173.808 229.182 173.444 229.182 173.037C229.182 172.569 229.303 172.201 229.546 171.932C229.789 171.663 230.179 171.473 230.716 171.36C231.253 171.239 231.968 171.178 232.861 171.178H233.576V172.27H232.861C232.523 172.27 232.241 172.296 232.016 172.348C231.799 172.391 231.639 172.465 231.535 172.569C231.431 172.664 231.379 172.79 231.379 172.946C231.379 173.145 231.448 173.31 231.587 173.44C231.734 173.57 231.942 173.635 232.211 173.635C232.428 173.635 232.618 173.587 232.783 173.492C232.956 173.397 233.095 173.267 233.199 173.102C233.303 172.929 233.355 172.729 233.355 172.504V170.996C233.355 170.684 233.273 170.463 233.108 170.333C232.952 170.203 232.679 170.138 232.289 170.138C232.081 170.138 231.847 170.164 231.587 170.216C231.327 170.259 231.037 170.342 230.716 170.463C230.482 170.55 230.283 170.563 230.118 170.502C229.953 170.441 229.823 170.337 229.728 170.19C229.641 170.043 229.598 169.882 229.598 169.709C229.607 169.536 229.663 169.371 229.767 169.215C229.88 169.059 230.049 168.938 230.274 168.851C230.69 168.695 231.071 168.591 231.418 168.539C231.773 168.487 232.098 168.461 232.393 168.461C233.104 168.461 233.689 168.565 234.148 168.773C234.616 168.972 234.963 169.284 235.188 169.709C235.422 170.125 235.539 170.662 235.539 171.321V173.947C235.539 174.328 235.448 174.619 235.266 174.818C235.084 175.017 234.82 175.117 234.473 175.117C234.118 175.117 233.845 175.017 233.654 174.818C233.472 174.619 233.381 174.328 233.381 173.947V173.609L233.459 173.791C233.416 174.068 233.316 174.307 233.16 174.506C233.004 174.705 232.8 174.861 232.549 174.974C232.298 175.087 232.012 175.143 231.691 175.143ZM238.027 175.117C237.663 175.117 237.381 175.017 237.182 174.818C236.982 174.619 236.883 174.328 236.883 173.947V169.644C236.883 169.271 236.978 168.985 237.169 168.786C237.368 168.587 237.65 168.487 238.014 168.487C238.378 168.487 238.655 168.587 238.846 168.786C239.036 168.985 239.132 169.271 239.132 169.644V170.359L238.989 169.722C239.171 169.341 239.439 169.037 239.795 168.812C240.159 168.578 240.588 168.461 241.082 168.461C241.55 168.461 241.948 168.574 242.278 168.799C242.616 169.024 242.858 169.367 243.006 169.826H242.824C243.023 169.401 243.322 169.068 243.721 168.825C244.119 168.582 244.561 168.461 245.047 168.461C245.549 168.461 245.961 168.561 246.282 168.76C246.602 168.951 246.841 169.254 246.997 169.67C247.161 170.077 247.244 170.593 247.244 171.217V173.947C247.244 174.328 247.14 174.619 246.932 174.818C246.732 175.017 246.446 175.117 246.074 175.117C245.71 175.117 245.428 175.017 245.229 174.818C245.029 174.619 244.93 174.328 244.93 173.947V171.282C244.93 170.909 244.873 170.641 244.761 170.476C244.648 170.311 244.462 170.229 244.202 170.229C243.881 170.229 243.634 170.342 243.461 170.567C243.296 170.792 243.214 171.113 243.214 171.529V173.947C243.214 174.328 243.114 174.619 242.915 174.818C242.715 175.017 242.429 175.117 242.057 175.117C241.684 175.117 241.398 175.017 241.199 174.818C240.999 174.619 240.9 174.328 240.9 173.947V171.282C240.9 170.909 240.843 170.641 240.731 170.476C240.618 170.311 240.432 170.229 240.172 170.229C239.86 170.229 239.617 170.342 239.444 170.567C239.279 170.792 239.197 171.113 239.197 171.529V173.947C239.197 174.727 238.807 175.117 238.027 175.117ZM252.071 175.143C251.291 175.143 250.615 175.009 250.043 174.74C249.48 174.463 249.046 174.073 248.743 173.57C248.44 173.067 248.288 172.474 248.288 171.789C248.288 171.13 248.431 170.554 248.717 170.06C249.012 169.557 249.41 169.167 249.913 168.89C250.424 168.604 251.005 168.461 251.655 168.461C252.132 168.461 252.565 168.539 252.955 168.695C253.345 168.842 253.679 169.063 253.956 169.358C254.233 169.644 254.441 169.991 254.58 170.398C254.727 170.805 254.801 171.26 254.801 171.763C254.801 171.936 254.753 172.066 254.658 172.153C254.563 172.231 254.411 172.27 254.203 172.27H250.225V171.178H253.111L252.903 171.347C252.903 171.026 252.86 170.766 252.773 170.567C252.686 170.368 252.556 170.216 252.383 170.112C252.218 170.008 252.01 169.956 251.759 169.956C251.49 169.956 251.256 170.021 251.057 170.151C250.866 170.272 250.719 170.454 250.615 170.697C250.511 170.94 250.459 171.243 250.459 171.607V171.724C250.459 172.339 250.593 172.781 250.862 173.05C251.139 173.31 251.564 173.44 252.136 173.44C252.327 173.44 252.543 173.418 252.786 173.375C253.037 173.323 253.276 173.254 253.501 173.167C253.726 173.08 253.921 173.067 254.086 173.128C254.251 173.18 254.376 173.275 254.463 173.414C254.558 173.544 254.61 173.696 254.619 173.869C254.628 174.034 254.589 174.198 254.502 174.363C254.415 174.519 254.272 174.64 254.073 174.727C253.77 174.866 253.445 174.97 253.098 175.039C252.76 175.108 252.418 175.143 252.071 175.143ZM260.662 175.117C260.298 175.117 260.016 175.017 259.817 174.818C259.617 174.619 259.518 174.328 259.518 173.947V166.888C259.518 166.507 259.617 166.216 259.817 166.017C260.016 165.818 260.298 165.718 260.662 165.718C261.034 165.718 261.32 165.818 261.52 166.017C261.728 166.216 261.832 166.507 261.832 166.888V169.722H261.624C261.832 169.315 262.126 169.003 262.508 168.786C262.898 168.569 263.34 168.461 263.834 168.461C264.345 168.461 264.765 168.561 265.095 168.76C265.424 168.951 265.671 169.254 265.836 169.67C266 170.077 266.083 170.593 266.083 171.217V173.947C266.083 174.328 265.983 174.619 265.784 174.818C265.584 175.017 265.298 175.117 264.926 175.117C264.553 175.117 264.267 175.017 264.068 174.818C263.868 174.619 263.769 174.328 263.769 173.947V171.308C263.769 170.918 263.699 170.641 263.561 170.476C263.431 170.311 263.236 170.229 262.976 170.229C262.629 170.229 262.352 170.342 262.144 170.567C261.936 170.784 261.832 171.078 261.832 171.451V173.947C261.832 174.727 261.442 175.117 260.662 175.117ZM270.886 175.143C270.106 175.143 269.43 175.009 268.858 174.74C268.294 174.463 267.861 174.073 267.558 173.57C267.254 173.067 267.103 172.474 267.103 171.789C267.103 171.13 267.246 170.554 267.532 170.06C267.826 169.557 268.225 169.167 268.728 168.89C269.239 168.604 269.82 168.461 270.47 168.461C270.946 168.461 271.38 168.539 271.77 168.695C272.16 168.842 272.493 169.063 272.771 169.358C273.048 169.644 273.256 169.991 273.395 170.398C273.542 170.805 273.616 171.26 273.616 171.763C273.616 171.936 273.568 172.066 273.473 172.153C273.377 172.231 273.226 172.27 273.018 172.27H269.04V171.178H271.926L271.718 171.347C271.718 171.026 271.674 170.766 271.588 170.567C271.501 170.368 271.371 170.216 271.198 170.112C271.033 170.008 270.825 169.956 270.574 169.956C270.305 169.956 270.071 170.021 269.872 170.151C269.681 170.272 269.534 170.454 269.43 170.697C269.326 170.94 269.274 171.243 269.274 171.607V171.724C269.274 172.339 269.408 172.781 269.677 173.05C269.954 173.31 270.379 173.44 270.951 173.44C271.141 173.44 271.358 173.418 271.601 173.375C271.852 173.323 272.09 173.254 272.316 173.167C272.541 173.08 272.736 173.067 272.901 173.128C273.065 173.18 273.191 173.275 273.278 173.414C273.373 173.544 273.425 173.696 273.434 173.869C273.442 174.034 273.403 174.198 273.317 174.363C273.23 174.519 273.087 174.64 272.888 174.727C272.584 174.866 272.259 174.97 271.913 175.039C271.575 175.108 271.232 175.143 270.886 175.143ZM275.796 175.117C275.414 175.117 275.12 175.017 274.912 174.818C274.712 174.619 274.613 174.328 274.613 173.947V169.644C274.613 169.271 274.708 168.985 274.899 168.786C275.098 168.587 275.38 168.487 275.744 168.487C276.108 168.487 276.385 168.587 276.576 168.786C276.766 168.985 276.862 169.271 276.862 169.644V170.177H276.732C276.818 169.657 277.039 169.245 277.395 168.942C277.759 168.639 278.209 168.478 278.747 168.461C278.998 168.452 279.184 168.517 279.306 168.656C279.436 168.786 279.505 169.033 279.514 169.397C279.514 169.709 279.449 169.956 279.319 170.138C279.189 170.32 278.942 170.428 278.578 170.463L278.279 170.489C277.819 170.532 277.486 170.662 277.278 170.879C277.07 171.087 276.966 171.399 276.966 171.815V173.947C276.966 174.328 276.866 174.619 276.667 174.818C276.467 175.017 276.177 175.117 275.796 175.117ZM283.619 175.143C282.839 175.143 282.163 175.009 281.591 174.74C281.028 174.463 280.594 174.073 280.291 173.57C279.988 173.067 279.836 172.474 279.836 171.789C279.836 171.13 279.979 170.554 280.265 170.06C280.56 169.557 280.958 169.167 281.461 168.89C281.972 168.604 282.553 168.461 283.203 168.461C283.68 168.461 284.113 168.539 284.503 168.695C284.893 168.842 285.227 169.063 285.504 169.358C285.781 169.644 285.989 169.991 286.128 170.398C286.275 170.805 286.349 171.26 286.349 171.763C286.349 171.936 286.301 172.066 286.206 172.153C286.111 172.231 285.959 172.27 285.751 172.27H281.773V171.178H284.659L284.451 171.347C284.451 171.026 284.408 170.766 284.321 170.567C284.234 170.368 284.104 170.216 283.931 170.112C283.766 170.008 283.558 169.956 283.307 169.956C283.038 169.956 282.804 170.021 282.605 170.151C282.414 170.272 282.267 170.454 282.163 170.697C282.059 170.94 282.007 171.243 282.007 171.607V171.724C282.007 172.339 282.141 172.781 282.41 173.05C282.687 173.31 283.112 173.44 283.684 173.44C283.875 173.44 284.091 173.418 284.334 173.375C284.585 173.323 284.824 173.254 285.049 173.167C285.274 173.08 285.469 173.067 285.634 173.128C285.799 173.18 285.924 173.275 286.011 173.414C286.106 173.544 286.158 173.696 286.167 173.869C286.176 174.034 286.137 174.198 286.05 174.363C285.963 174.519 285.82 174.64 285.621 174.727C285.318 174.866 284.993 174.97 284.646 175.039C284.308 175.108 283.966 175.143 283.619 175.143Z" fill="#9E9E9E"/>
<g filter="url(#filter0_d_255_545)">
<path d="M38.8957 15.2985C31.5511 7.95396 19.6432 7.95396 12.2986 15.2985C4.95402 22.6431 4.95402 34.5511 12.2986 41.8957C19.6432 49.2402 31.5511 49.2402 38.8957 41.8957C46.2403 34.5511 46.2403 22.6431 38.8957 15.2985Z" fill="#FF4423"/>
</g>
<path d="M25.5972 9.79425C21.8775 9.79425 18.2414 10.8973 15.1486 12.9638C12.0558 15.0303 9.64522 17.9676 8.22176 21.4041C6.7983 24.8407 6.4259 28.6221 7.15157 32.2703C7.87724 35.9185 9.6684 39.2696 12.2986 41.8998C14.9288 44.53 18.2799 46.3212 21.9281 47.0469C25.5763 47.7726 29.3578 47.4001 32.7943 45.9767C36.2309 44.5532 39.1681 42.1427 41.2346 39.0499C43.3012 35.9571 44.4042 32.3209 44.4042 28.6013C44.4042 26.1315 43.9177 23.6859 42.9726 21.4041C42.0274 19.1224 40.6422 17.0491 38.8958 15.3027C37.1494 13.5563 35.0761 12.171 32.7943 11.2258C30.5126 10.2807 28.067 9.79425 25.5972 9.79425ZM25.5972 8.63425C30.5322 8.6402 35.2891 10.4789 38.9451 13.7936C42.6011 17.1083 44.8956 21.6629 45.3836 26.5736C45.8716 31.4844 44.5183 36.4014 41.5861 40.3708C38.6539 44.3403 34.352 47.0791 29.5147 48.0562C24.6774 49.0332 19.6496 48.1788 15.4066 45.6586C11.1637 43.1384 8.00799 39.1322 6.55171 34.417C5.09544 29.7017 5.44236 24.6137 7.52523 20.1398C9.60809 15.6659 13.2785 12.1251 17.8242 10.2043C20.2832 9.16325 22.9269 8.62925 25.5972 8.63425Z" fill="white"/>
<path d="M36.555 17.6416C30.5015 11.5881 20.6868 11.5881 14.6333 17.6416C8.57974 23.6952 8.57974 33.5099 14.6333 39.5634C20.6868 45.6169 30.5015 45.6169 36.555 39.5634C42.6085 33.5099 42.6085 23.6952 36.555 17.6416Z" fill="white"/>
<path d="M18.5841 25.7782L27.0121 20.9122C27.5076 20.6261 28.0699 20.4755 28.6421 20.4755C29.2143 20.4755 29.7764 20.6261 30.272 20.9122C30.7675 21.1983 31.1792 21.6098 31.4653 22.1053C31.7515 22.6008 31.9021 23.163 31.9021 23.7352V33.4672C31.9021 34.0395 31.7515 34.6016 31.4653 35.0971C31.1792 35.5927 30.7675 36.0042 30.272 36.2903C29.7764 36.5764 29.2143 36.727 28.6421 36.727C28.0699 36.727 27.5076 36.5763 27.0121 36.2902L18.5841 31.4242C18.0886 31.1381 17.6773 30.7266 17.3912 30.231C17.1052 29.7355 16.9546 29.1734 16.9546 28.6012C16.9546 28.0291 17.1052 27.467 17.3912 26.9714C17.6773 26.4759 18.0886 26.0644 18.5841 25.7782Z" fill="#F95738"/>
<g filter="url(#filter1_d_255_545)">
<path d="M626.996 39.8957C634.34 32.5511 634.34 20.6431 626.996 13.2986C619.651 5.95396 607.743 5.95396 600.399 13.2986C593.054 20.6431 593.054 32.5511 600.399 39.8957C607.743 47.2403 619.651 47.2403 626.996 39.8957Z" fill="#FF4423"/>
</g>
<path d="M613.7 7.78711C617.42 7.78711 621.056 8.89012 624.149 10.9567C627.242 13.0232 629.652 15.9605 631.076 19.397C632.499 22.8335 632.872 26.615 632.146 30.2632C631.42 33.9114 629.629 37.2625 626.999 39.8927C624.369 42.5229 621.017 44.3141 617.369 45.0397C613.721 45.7654 609.94 45.393 606.503 43.9695C603.067 42.5461 600.129 40.1355 598.063 37.0427C595.996 33.9499 594.893 30.3138 594.893 26.5941C594.893 24.1243 595.38 21.6788 596.325 19.397C597.27 17.1152 598.655 15.0419 600.402 13.2956C602.148 11.5492 604.221 10.1638 606.503 9.21871C608.785 8.27357 611.23 7.78711 613.7 7.78711ZM613.7 6.62711C608.765 6.63306 604.008 8.47174 600.352 11.7865C596.696 15.1012 594.402 19.6557 593.914 24.5665C593.426 29.4773 594.779 34.3943 597.711 38.3637C600.644 42.3331 604.945 45.072 609.783 46.049C614.62 47.0261 619.648 46.1716 623.891 43.6514C628.134 41.1313 631.289 37.125 632.746 32.4098C634.202 27.6946 633.855 22.6066 631.772 18.1327C629.689 13.6588 626.019 10.118 621.473 8.19711C619.014 7.15611 616.37 6.62211 613.7 6.62711Z" fill="white"/>
<path d="M624.658 37.555C630.711 31.5015 630.711 21.6868 624.658 15.6333C618.604 9.57974 608.79 9.57974 602.736 15.6333C596.682 21.6868 596.682 31.5015 602.736 37.555C608.79 43.6085 618.604 43.6085 624.658 37.555Z" fill="white"/>
<path d="M620.708 23.7711L612.28 18.9051C611.785 18.619 611.222 18.4684 610.65 18.4684C610.078 18.4684 609.516 18.619 609.02 18.9051C608.525 19.1912 608.113 19.6027 607.827 20.0982C607.541 20.5938 607.39 21.1559 607.39 21.7281V31.4601C607.39 32.0324 607.541 32.5945 607.827 33.0901C608.113 33.5856 608.525 33.9971 609.02 34.2832C609.516 34.5693 610.078 34.7199 610.65 34.7199C611.222 34.7199 611.785 34.5693 612.28 34.2831L620.708 29.4171C621.204 29.131 621.615 28.7195 621.901 28.2239C622.187 27.7284 622.338 27.1663 622.338 26.5941C622.338 26.022 622.187 25.4599 621.901 24.9644C621.615 24.4688 621.204 24.0573 620.708 23.7711Z" fill="#FE4423"/>
<path d="M544.25 32.1321C543.83 32.1321 543.51 32.0221 543.29 31.8021C543.07 31.5821 542.96 31.2571 542.96 30.8271V22.6521C542.96 22.2121 543.07 21.8771 543.29 21.6471C543.51 21.4071 543.8 21.2871 544.16 21.2871C544.48 21.2871 544.73 21.3471 544.91 21.4671C545.09 21.5871 545.29 21.7871 545.51 22.0671L550.265 28.0071H549.845V22.5771C549.845 22.1571 549.95 21.8371 550.16 21.6171C550.38 21.3971 550.7 21.2871 551.12 21.2871C551.54 21.2871 551.855 21.3971 552.065 21.6171C552.285 21.8371 552.395 22.1571 552.395 22.5771V30.8871C552.395 31.2671 552.295 31.5721 552.095 31.8021C551.895 32.0221 551.625 32.1321 551.285 32.1321C550.945 32.1321 550.675 32.0721 550.475 31.9521C550.285 31.8221 550.08 31.6221 549.86 31.3521L545.105 25.3971H545.525V30.8271C545.525 31.2571 545.415 31.5821 545.195 31.8021C544.985 32.0221 544.67 32.1321 544.25 32.1321ZM558.167 32.1621C557.267 32.1621 556.487 32.0071 555.827 31.6971C555.177 31.3771 554.677 30.9271 554.327 30.3471C553.977 29.7671 553.802 29.0821 553.802 28.2921C553.802 27.5321 553.967 26.8671 554.297 26.2971C554.637 25.7171 555.097 25.2671 555.677 24.9471C556.267 24.6171 556.937 24.4521 557.687 24.4521C558.237 24.4521 558.737 24.5421 559.187 24.7221C559.637 24.8921 560.022 25.1471 560.342 25.4871C560.662 25.8171 560.902 26.2171 561.062 26.6871C561.232 27.1571 561.317 27.6821 561.317 28.2621C561.317 28.4621 561.262 28.6121 561.152 28.7121C561.042 28.8021 560.867 28.8471 560.627 28.8471H556.037V27.5871H559.367L559.127 27.7821C559.127 27.4121 559.077 27.1121 558.977 26.8821C558.877 26.6521 558.727 26.4771 558.527 26.3571C558.337 26.2371 558.097 26.1771 557.807 26.1771C557.497 26.1771 557.227 26.2521 556.997 26.4021C556.777 26.5421 556.607 26.7521 556.487 27.0321C556.367 27.3121 556.307 27.6621 556.307 28.0821V28.2171C556.307 28.9271 556.462 29.4371 556.772 29.7471C557.092 30.0471 557.582 30.1971 558.242 30.1971C558.462 30.1971 558.712 30.1721 558.992 30.1221C559.282 30.0621 559.557 29.9821 559.817 29.8821C560.077 29.7821 560.302 29.7671 560.492 29.8371C560.682 29.8971 560.827 30.0071 560.927 30.1671C561.037 30.3171 561.097 30.4921 561.107 30.6921C561.117 30.8821 561.072 31.0721 560.972 31.2621C560.872 31.4421 560.707 31.5821 560.477 31.6821C560.127 31.8421 559.752 31.9621 559.352 32.0421C558.962 32.1221 558.567 32.1621 558.167 32.1621ZM563.488 32.1171C563.158 32.1171 562.893 32.0271 562.693 31.8471C562.493 31.6671 562.388 31.4371 562.378 31.1571C562.378 30.8771 562.493 30.5921 562.723 30.3021L564.943 27.6021V28.7871L562.903 26.2971C562.673 25.9971 562.558 25.7121 562.558 25.4421C562.568 25.1621 562.673 24.9321 562.873 24.7521C563.073 24.5721 563.338 24.4821 563.668 24.4821C563.988 24.4821 564.248 24.5371 564.448 24.6471C564.658 24.7471 564.858 24.9171 565.048 25.1571L566.443 26.9571H565.513L566.908 25.1571C567.098 24.9171 567.298 24.7471 567.508 24.6471C567.718 24.5371 567.978 24.4821 568.288 24.4821C568.628 24.4821 568.893 24.5721 569.083 24.7521C569.283 24.9321 569.383 25.1621 569.383 25.4421C569.393 25.7221 569.278 26.0071 569.038 26.2971L566.998 28.7871V27.6021L569.233 30.3021C569.473 30.5821 569.588 30.8621 569.578 31.1421C569.568 31.4221 569.463 31.6571 569.263 31.8471C569.063 32.0271 568.793 32.1171 568.453 32.1171C568.143 32.1171 567.883 32.0671 567.673 31.9671C567.463 31.8571 567.263 31.6821 567.073 31.4421L565.513 29.4471H566.428L564.853 31.4421C564.673 31.6721 564.478 31.8421 564.268 31.9521C564.068 32.0621 563.808 32.1171 563.488 32.1171ZM574.907 32.1621C574.157 32.1621 573.537 32.0471 573.047 31.8171C572.567 31.5871 572.207 31.2421 571.967 30.7821C571.727 30.3121 571.607 29.7271 571.607 29.0271V26.5821H571.097C570.777 26.5821 570.527 26.4971 570.347 26.3271C570.177 26.1571 570.092 25.9121 570.092 25.5921C570.092 25.2721 570.177 25.0321 570.347 24.8721C570.527 24.7021 570.777 24.6171 571.097 24.6171H571.607V23.6871C571.607 23.2471 571.722 22.9121 571.952 22.6821C572.182 22.4521 572.512 22.3371 572.942 22.3371C573.372 22.3371 573.702 22.4521 573.932 22.6821C574.162 22.9121 574.277 23.2471 574.277 23.6871V24.6171H575.507C575.837 24.6171 576.087 24.7021 576.257 24.8721C576.437 25.0321 576.527 25.2721 576.527 25.5921C576.527 25.9121 576.437 26.1571 576.257 26.3271C576.087 26.4971 575.837 26.5821 575.507 26.5821H574.277V28.9371C574.277 29.3071 574.362 29.5821 574.532 29.7621C574.712 29.9321 574.992 30.0171 575.372 30.0171C575.512 30.0171 575.647 30.0021 575.777 29.9721C575.907 29.9421 576.027 29.9271 576.137 29.9271C576.297 29.9171 576.427 29.9671 576.527 30.0771C576.627 30.1771 576.677 30.4121 576.677 30.7821C576.677 31.0821 576.632 31.3371 576.542 31.5471C576.452 31.7471 576.292 31.8921 576.062 31.9821C575.922 32.0321 575.732 32.0721 575.492 32.1021C575.252 32.1421 575.057 32.1621 574.907 32.1621Z" fill="#FE4423"/>
<circle cx="287.172" cy="26.1719" r="6.17188" fill="#F95738"/>
<circle cx="309.391" cy="26.1719" r="6.17188" fill="#F95738"/>
<circle cx="331.609" cy="26.1719" r="6.17188" fill="#F95738"/>
<circle cx="353.828" cy="26.1719" r="6.17188" fill="#C4C4C4"/>
</g>
<defs>
<filter id="filter0_d_255_545" x="6.79016" y="9.7901" width="43.614" height="43.614" filterUnits="userSpaceOnUse" color-interpolation-filters="sRGB">
<feFlood flood-opacity="0" result="BackgroundImageFix"/>
<feColorMatrix in="SourceAlpha" type="matrix" values="0 0 0 0 0 0 0 0 0 0 0 0 0 0 0 0 0 0 127 0" result="hardAlpha"/>
<feOffset dx="4" dy="4"/>
<feGaussianBlur stdDeviation="1"/>
<feColorMatrix type="matrix" values="0 0 0 0 0 0 0 0 0 0 0 0 0 0 0 0 0 0 0.161 0"/>
<feBlend mode="normal" in2="BackgroundImageFix" result="effect1_dropShadow_255_545"/>
<feBlend mode="normal" in="SourceGraphic" in2="effect1_dropShadow_255_545" result="shape"/>
</filter>
<filter id="filter1_d_255_545" x="594.89" y="7.7901" width="43.614" height="43.614" filterUnits="userSpaceOnUse" color-interpolation-filters="sRGB">
<feFlood flood-opacity="0" result="BackgroundImageFix"/>
<feColorMatrix in="SourceAlpha" type="matrix" values="0 0 0 0 0 0 0 0 0 0 0 0 0 0 0 0 0 0 127 0" result="hardAlpha"/>
<feOffset dx="4" dy="4"/>
<feGaussianBlur stdDeviation="1"/>
<feColorMatrix type="matrix" values="0 0 0 0 0 0 0 0 0 0 0 0 0 0 0 0 0 0 0.161 0"/>
<feBlend mode="normal" in2="BackgroundImageFix" result="effect1_dropShadow_255_545"/>
<feBlend mode="normal" in="SourceGraphic" in2="effect1_dropShadow_255_545" result="shape"/>
</filter>
<linearGradient id="paint0_linear_255_545" x1="278.732" y1="529.4" x2="287.467" y2="-64.5878" gradientUnits="userSpaceOnUse">
<stop offset="0.0296418" stop-color="#B8D2FF"/>
<stop offset="0.3321" stop-color="#E4F9F8"/>
</linearGradient>
<linearGradient id="paint1_linear_255_545" x1="512.84" y1="500.441" x2="667.063" y2="-132.047" gradientUnits="userSpaceOnUse">
<stop offset="0.3479" stop-color="white"/>
<stop offset="0.5371" stop-color="#E4F9F8"/>
</linearGradient>
<linearGradient id="paint2_linear_255_545" x1="32.8014" y1="389.379" x2="-41.1652" y2="-148.434" gradientUnits="userSpaceOnUse">
<stop offset="0.3479" stop-color="white"/>
<stop offset="0.762" stop-color="#E4F9F8"/>
</linearGradient>
<clipPath id="clip0_255_545">
<rect width="640" height="360" fill="white"/>
</clipPath>
</defs>
</svg>
